<?xml version="1.0" encoding="utf-8"?>
<!-- Generator: Adobe Illustrator 22.0.1, SVG Export Plug-In . SVG Version: 6.00 Build 0)  -->
<svg version="1.1" id="Слой_1" xmlns="http://www.w3.org/2000/svg" xmlns:xlink="http://www.w3.org/1999/xlink" x="0px" y="0px"
	 viewBox="0 0 50.3 39.2" style="enable-background:new 0 0 50.3 39.2;" xml:space="preserve">
<style type="text/css">
	.st0{fill:#040506;}
</style>
<path class="st0" d="M24.5,38.7l0.6,0l8.2-18.5c0.6-1.3,2-1.8,3.1-1l13.5,9.7l0.9,0L43.4,2.2c-0.3-1.2-1.3-1.9-2.4-1.7l-0.9,0.1
	c-1.4,0.2-2.2,1.8-1.8,3.3l2,6.8c0.6,2.2-1.4,4.1-3.2,2.9l-3.3-2.2c-1.1-0.7-2.5-0.3-3.1,1.1l-0.9,2.1l0,0l-3,7
	c-0.8,1.9-3.2,1.9-3.9,0l-1.3-3.1c-0.5-1.3-2-1.8-3.1-1.1l-0.7,0.5c-1,0.7-1.3,2.1-0.8,3.2L24.5,38.7z"/>
<path class="st0" d="M-0.1,28.8L23.7,12c0.7-0.5,1.6-0.5,2.3,0l0.5,0.3c1.1,0.8,2.6,0.2,3.1-1.1l0,0c0.5-1.2,0.1-2.5-0.9-3.2
	l-3.6-2.4h-0.3h-0.3l-11.9,8c-1.7,1.2-3.8-0.7-3.2-2.9l2-6.8c0.4-1.5-0.4-3-1.8-3.3L8.8,0.5C7.7,0.4,6.7,1.1,6.4,2.2L-1,28.9
	L-0.1,28.8z"/>
</svg>
