<?xml version="1.0" encoding="utf-8"?>
<!-- Generator: Adobe Illustrator 22.0.1, SVG Export Plug-In . SVG Version: 6.00 Build 0)  -->
<svg version="1.1" id="Layer_1" xmlns="http://www.w3.org/2000/svg" xmlns:xlink="http://www.w3.org/1999/xlink" x="0px" y="0px"
	 viewBox="0 0 448.6 294.9" style="enable-background:new 0 0 448.6 294.9;" xml:space="preserve">
<style type="text/css">
	.st0{fill:#FFFFFF;}
</style>
<g>
	<path class="st0" d="M298.9,131.3c3.4,0,6.2,2.7,6.2,6c0,3.4-2.7,6.1-6.2,6.1c-3.5,0-6.3-2.7-6.3-6.1
		C292.6,133.9,295.4,131.3,298.9,131.3L298.9,131.3z M298.8,132.5c-2.6,0-4.7,2.2-4.7,4.8c0,2.7,2,4.8,4.7,4.8
		c2.6,0,4.6-2.1,4.6-4.8C303.5,134.7,301.5,132.5,298.8,132.5L298.8,132.5z M297.9,140.5h-1.4v-6c0.6-0.1,1.3-0.2,2.3-0.2
		c1.1,0,1.7,0.2,2.1,0.5c0.4,0.3,0.6,0.7,0.6,1.3c0,0.7-0.6,1.2-1.3,1.4v0.1c0.6,0.2,0.9,0.7,1.1,1.5c0.2,0.9,0.3,1.3,0.4,1.5h-1.5
		c-0.2-0.2-0.3-0.7-0.5-1.5c-0.1-0.6-0.5-0.9-1.3-0.9h-0.7V140.5z M297.9,137.1h0.7c0.8,0,1.4-0.3,1.4-0.9c0-0.6-0.4-0.9-1.3-0.9
		c-0.4,0-0.6,0-0.8,0.1V137.1z"/>
	<polygon class="st0" points="211,1 208.7,1 170,76 105.2,36.2 101.3,36.1 134.4,138.6 156.8,135.6 137.4,78.5 180.7,103.6 
		188.6,87.4 188.6,87.3 209.6,45.6 227.3,82.4 246.2,71.4 	"/>
	<polygon class="st0" points="313.5,36.2 209.4,99.5 193.8,90.4 186.1,106.7 208,119.5 209.4,119.5 210.7,119.5 281.3,78.5 
		261.9,135.6 284.3,138.6 317.4,36.1 	"/>
</g>
<g>
	<polygon class="st0" points="54,207.6 2.7,160.6 -1,160.6 -1,242.3 15.4,242.3 15.4,193 52.7,227 55.2,227 90.5,193.1 90.5,242.3 
		107,242.3 107,160.6 103.2,160.6 	"/>
	<rect x="127.2" y="161.9" class="st0" width="16.4" height="80.4"/>
	<path class="st0" d="M207.3,159.5l-55.6,82.7h17.6l9.9-14.8h59.3l10.2,14.8H267l-56.7-82.7H207.3z M228.8,213.3h-40.2l19.9-29.6
		L228.8,213.3z"/>
	<polygon class="st0" points="328.8,207.6 277.5,160.6 273.8,160.6 273.8,242.3 290.2,242.3 290.2,193 327.4,227 329.9,227 
		365.3,193.1 365.3,242.3 381.7,242.3 381.7,160.6 378,160.6 	"/>
	<rect x="402" y="161.9" class="st0" width="16.4" height="80.4"/>
</g>
<path class="st0" d="M22.3,294.9c-13.1,0-22.5-5.5-22.5-15.3c0-9.8,10-15.7,22.2-15.7c9.3,0,13.8,1.7,15.6,2.4v3.6l-0.2,0.1
	c-2.3-1.5-6.4-3.9-15.3-3.9c-10.4,0-17.7,4.4-17.7,13.4c0,8.6,6.3,13,17.9,13c8,0,12-2.1,16-5.2l0.2,0.1v3.8
	C36.4,292.5,31,294.9,22.3,294.9z"/>
<path class="st0" d="M64,294.9c-11.3,0-21.6-5.1-21.6-15.4c0-10.7,10.9-15.6,21.6-15.6c10.7,0,21.6,4.8,21.6,15.5
	C85.6,289.7,75.3,294.9,64,294.9z M63.9,292.6c10.9,0,17.2-4.8,17.2-13.1c0-8.4-6.6-13.3-17.2-13.3c-10.5,0-17,4.9-17,13.2
	C46.9,287.7,53,292.6,63.9,292.6z"/>
<path class="st0" d="M92.4,264.3h3.8c8.8,8.3,19.6,17.9,28.5,25.7c0.1-6.8,0.1-19.3,0-25.6l0.2-0.1h2.4l0.2,0.2
	c-0.2,8.6-0.2,20.7,0,29.8l-0.2,0.2h-3.6c-7.6-7.3-20.1-18.5-28.6-26c-0.1,6-0.1,18.3,0,25.9l-0.2,0.1h-2.5l-0.1-0.1
	c0.1-7.4,0.1-22.9,0-29.9L92.4,264.3z"/>
<path class="st0" d="M135.9,294.4c0.2-9.3,0.2-22.6,0-29.6l0.2-0.2c3.7-0.1,6.9-0.6,15.4-0.6c12.3,0,23.2,5.1,23.2,15.8
	c0,9.6-10.5,15.2-23.2,15.2c-7.5,0-12-0.4-15.4-0.4L135.9,294.4z M140,292c2.6,0.2,4.2,0.7,10.8,0.7c13.1,0,19.3-4.8,19.3-12.9
	c0-8.8-6.5-13.6-19.5-13.6c-5.1,0-7.6,0.4-10.6,0.9C139.9,272,139.9,283.8,140,292z"/>
<path class="st0" d="M201,294.9c-11.3,0-21.6-5.1-21.6-15.4c0-10.7,10.9-15.6,21.6-15.6c10.7,0,21.6,4.8,21.6,15.5
	C222.6,289.7,212.3,294.9,201,294.9z M200.9,292.6c10.9,0,17.2-4.8,17.2-13.1c0-8.4-6.6-13.3-17.2-13.3c-10.5,0-17,4.9-17,13.2
	C183.9,287.7,190.1,292.6,200.9,292.6z"/>
<path class="st0" d="M246.9,294.5h-3.8l-0.1-0.1c0.2-9.3,0.2-23,0-29.9l0.2-0.1h3.8l0.2,0.2c-0.1,4.7-0.2,10.9-0.2,17.2
	c9.9-6.5,17.1-12,24.3-17.3h5.4l0.1,0.2c-5.3,3.1-11.7,7.4-18.4,12.1c5.6,5.1,13.2,11.9,20.3,17.7l-0.1,0.2h-5.8
	c-6.6-6.3-11.5-10.6-17.7-15.6l-8.2,5.7c0,3.4,0.1,6.8,0.2,9.8L246.9,294.5z"/>
<path class="st0" d="M283.9,294.3c0.2-9.3,0.2-22.9,0-29.8l0.1-0.2h3.8l0.2,0.1c-0.2,10.4-0.1,20.1,0,29.9l-0.2,0.1H284L283.9,294.3
	z"/>
<path class="st0" d="M297,264.3h3.8c8.8,8.3,19.6,17.9,28.5,25.7c0.1-6.8,0.1-19.3,0-25.6l0.2-0.1h2.4l0.2,0.2
	c-0.2,8.6-0.2,20.7,0,29.8l-0.2,0.2h-3.6c-7.6-7.3-20.1-18.5-28.6-26c-0.1,6-0.1,18.3,0,25.9l-0.2,0.1h-2.5l-0.1-0.1
	c0.1-7.4,0.1-22.9,0-29.9L297,264.3z"/>
<path class="st0" d="M360.7,294.9c-13,0-22.2-5.4-22.2-15.3c0-9.6,10.1-15.7,22-15.7c9.9,0,14.5,1.7,16.3,2.5v4l-0.2,0.1
	c-2.2-1.8-6.1-4.3-16-4.3c-10.5,0-17.5,4.5-17.5,13.4c0,9,6,13,17.6,13c6.1,0,9.8-1.1,13.2-2.4c0.1-3.4,0.1-5.4,0-10.5l0.2-0.2h3.8
	l0.2,0.1c-0.2,4.9-0.2,7.7,0,12.1C373.3,293.7,368.4,294.9,360.7,294.9z"/>
<path class="st0" d="M408.7,281c-4.7-0.8-11.9-0.1-18.2-1.5c-4.3-1-6.6-3.2-6.6-6.9c0-5.2,5-8.7,16.1-8.7c8.9,0,13.3,1.8,15,2.8v3.5
	l-0.2,0.1c-2-1.7-6.4-4.2-15-4.2c-10.1,0-12.6,2.9-12.6,5.7c0,2.5,1.6,3.9,4.8,4.5c4.9,1,11.7,0.4,17.5,1.3c5,0.7,8,2.8,8,6.9
	c0,5.8-5.4,10.3-17.9,10.3c-9,0-14.3-2.1-16.5-3.5v-3.9l0.2-0.1c3.5,3.1,8.3,5.3,16.5,5.3c10.4,0,14.1-3,14.1-6.8
	C414,283.4,412.3,281.6,408.7,281z"/>
<path class="st0" d="M435.5,161.4v1.6h-3v7.9h-1.9V163h-3v-1.6H435.5z M445.7,170.9l-0.3-5.6c0-0.7,0-1.6-0.1-2.6h-0.1
	c-0.2,0.8-0.5,1.9-0.8,2.8l-1.7,5.3h-2l-1.7-5.4c-0.2-0.7-0.5-1.8-0.7-2.7h-0.1c0,0.9,0,1.8-0.1,2.6l-0.3,5.6H436l0.7-9.5h2.9
	l1.6,4.6c0.2,0.7,0.4,1.4,0.6,2.4h0.1c0.2-0.8,0.5-1.7,0.6-2.3l1.6-4.7h2.8l0.7,9.5H445.7z"/>
</svg>
